<?xml version="1.0" encoding="UTF-8"?>
<svg width="1200" height="630" viewBox="0 0 1200 630" fill="none" xmlns="http://www.w3.org/2000/svg">
  <defs>
    <linearGradient id="bg" x1="118" y1="74" x2="1088" y2="594" gradientUnits="userSpaceOnUse">
      <stop stop-color="#161116"/>
      <stop offset="0.52" stop-color="#2A1D24"/>
      <stop offset="1" stop-color="#7B294A"/>
    </linearGradient>
    <linearGradient id="panel" x1="196" y1="132" x2="1008" y2="510" gradientUnits="userSpaceOnUse">
      <stop stop-color="#FFF8F4" stop-opacity="0.98"/>
      <stop offset="1" stop-color="#F6E9E2" stop-opacity="0.92"/>
    </linearGradient>
    <filter id="shadow" x="80" y="70" width="1040" height="500" filterUnits="userSpaceOnUse" color-interpolation-filters="sRGB">
      <feFlood flood-opacity="0" result="BackgroundImageFix"/>
      <feColorMatrix in="SourceAlpha" type="matrix" values="0 0 0 0 0 0 0 0 0 0 0 0 0 0 0 0 0 0 127 0" result="hardAlpha"/>
      <feOffset dy="18"/>
      <feGaussianBlur stdDeviation="30"/>
      <feComposite in2="hardAlpha" operator="out"/>
      <feColorMatrix type="matrix" values="0 0 0 0 0.0902 0 0 0 0 0.0667 0 0 0 0 0.0863 0 0 0 0.2 0"/>
      <feBlend mode="normal" in2="BackgroundImageFix" result="effect1_dropShadow_0_1"/>
      <feBlend mode="normal" in="SourceGraphic" in2="effect1_dropShadow_0_1" result="shape"/>
    </filter>
  </defs>
  <rect width="1200" height="630" fill="url(#bg)"/>
  <circle cx="1022" cy="124" r="132" fill="#ED4672" fill-opacity="0.16"/>
  <circle cx="202" cy="554" r="148" fill="#FFF8F4" fill-opacity="0.08"/>
  <g filter="url(#shadow)">
    <rect x="140" y="120" width="920" height="390" rx="40" fill="url(#panel)"/>
  </g>
  <rect x="198" y="176" width="188" height="188" rx="42" fill="#111015"/>
  <svg x="228" y="206" width="128" height="128" viewBox="0 0 1024 1024">
<g clip-path="url(#clip0_215_215)">
<path d="M667.13 904.56C654.23 907.3 641.7 905.59 629 899.36C615.38 892.69 601.71 876.8 598.13 863.47C594.62 850.41 595.05 835.67 599.32 822.94L601.6 816.15L595.05 816.7C569.79 818.81 549.1 796.71 553.1 771.87C554.37 763.98 556.15 759.81 560.96 753.44C570.56 740.72 589.12 735.02 606.34 739.5C609.51 740.33 612.54 741 613.08 741C613.62 741 610.23 733.51 605.53 724.36C594.32 702.5 591.86 694.85 591.27 680C590.74 666.96 592.25 658.41 596.61 649.74C605.9 631.27 621.03 621.47 639.08 622.21C644.18 622.42 645.87 622.77 644.5 623.34C622.29 632.54 610.29 645.98 606.93 665.41C604.24 680.98 606.88 691.05 621.08 719.5C634.83 747.05 636.48 752.83 635.74 770.96C635.14 785.59 633.89 789.54 623.63 809.13C620.06 815.93 616.14 824.62 614.92 828.44C612.18 837.03 611.92 849.04 614.32 857.12C617.9 869.23 628.32 880.24 640.81 885.12C649.52 888.53 662.57 888.4 670.18 884.84C684.52 878.11 692.26 865.8 694.94 845.44C697.45 826.25 701 817.77 710.38 808.52C722.34 796.72 732.64 793.39 761.5 792C771.95 791.5 782.51 790.59 784.97 789.99C796.8 787.08 810.07 777.64 817 767.2L820.11 762.5L814.43 761.77C801.51 760.11 787.67 750.34 782.88 739.5C780.19 733.4 779.9 722.42 782.28 716.81C786.67 706.49 797.51 699.68 809.5 699.72C828.74 699.79 841.33 713.06 842.75 734.75C843.04 739.29 843.46 743 843.67 743C843.89 743 846.34 741.85 849.12 740.44C860.08 734.88 867.79 723.45 870.1 709.31C871.09 703.25 871.01 700.66 869.59 692.89C866.58 676.47 859.44 660.61 846.54 641.73L839.86 631.96L833.68 637.56C817.13 652.56 799.77 659.94 780.91 659.98C753.23 660.05 729.34 640.87 725.71 615.67C722.58 593.94 733.5 573.87 753.71 564.22L761.5 560.5L775 560.53C787.22 560.56 789.13 560.81 795.2 563.21C808.79 568.6 820.09 577.82 833.24 594.25C837.09 599.06 840.61 603 841.06 603C841.52 603 844.35 599.74 847.37 595.75C858.31 581.27 867.57 573.64 878.67 569.94C885.47 567.68 887.09 567.66 908.11 569.6C921.27 570.82 939.78 564.02 949.73 554.32C960.91 543.41 964.82 526.93 958.94 515.49C955.37 508.52 951.29 506 943.6 506C936.24 506 929.1 509.08 917.31 517.34C887.9 537.95 860.89 539.44 842.07 521.48C834.43 514.2 831.62 508 831.66 498.5C831.7 485.81 839.04 474.98 851.39 469.37C859.29 465.79 872.77 464.98 884.43 467.39C888.71 468.28 893.4 469 894.86 468.99C911.18 468.96 923.82 448.65 918.63 430.81C913.53 413.25 896.94 400.57 866.5 390.93C832.76 380.25 823.08 375.35 810.49 362.61C796.91 348.86 791.42 333.54 793.83 316.13C797.07 292.8 814.55 272.76 839.37 263.95L844.5 262.12L844.38 254.81C844.08 236.58 833.83 218.96 819.29 211.67C812.2 208.12 804.82 206.7 796.13 207.2C783.06 207.96 776.15 212.3 762.81 228.15C745.04 249.26 716.99 248.81 703.12 227.18C698.82 220.49 697.28 215.55 694.59 199.94C691.7 183.11 688.25 175.21 680.94 168.64C659.99 149.8 622.66 161.01 607.16 190.8C602.72 199.34 599 211.76 599 218.04C599 222.32 600.22 222.95 608.5 223C621.59 223.08 639.15 230.37 648.33 239.54C651.66 242.88 655.3 247.9 657.23 251.83C660.19 257.84 660.5 259.33 660.5 267.49C660.5 275.61 660.21 277.03 657.53 281.86C654.23 287.82 649.8 291.9 643.03 295.19C639.48 296.92 636.66 297.41 629.95 297.45C622.05 297.5 620.82 297.22 613.9 293.8C603.7 288.75 595.36 280.04 590.01 268.83C586.38 261.24 582.05 247.1 582.02 242.73C582 240.64 580.08 240.95 570 244.68C541.69 255.15 523.03 281.11 523.03 310C523.03 328.26 529.16 342.27 543.32 356.37C543.77 356.82 544.21 357.25 544.62 357.66C549.16 362.17 551.1 364.09 550.78 365.51C550.51 366.68 548.69 367.5 545.5 369.18C525.44 379.7 513.19 395.43 504.53 421.79C501.51 430.98 500.3 431.35 498.08 423.76C495.78 415.89 487.12 399.56 481.5 392.5C474.66 383.92 464.07 375.3 453.76 369.94C449.49 367.72 446 365.63 446 365.31C446 364.99 449.35 361.22 453.44 356.93C459.2 350.91 461.9 347.02 465.36 339.82C470.6 328.89 472 322.95 472 311.56C472 294.03 465.11 278.87 450.6 264.46C443.06 256.97 439.77 254.53 431.45 250.27C419.06 243.92 409.29 240.93 407.94 243.06C407.44 243.85 407.02 245.41 407.02 246.52C407.01 247.63 406.07 251.9 404.93 256C399.25 276.5 385.12 292.45 368.98 296.58C357.11 299.62 346.26 296.97 337.48 288.88C330.32 282.27 327.66 276.22 327.63 266.48C327.6 259.51 328.02 257.55 330.79 251.63C336.4 239.64 348.77 229.73 363.5 225.42C366.8 224.46 374.23 223.17 380 222.56L390.5 221.45L390.19 216.97C388.86 197.61 375.47 177.26 358.7 169.12C350.77 165.28 336.28 162.03 327 162.02C317.02 162.01 302.21 164.58 293.08 167.91C280.13 172.64 272.32 177.51 263.41 186.41C251 198.81 246.02 210.45 243.92 232C241.74 254.26 239.4 260.77 230.28 269.86C217.76 282.36 204.19 285.09 170.42 281.91C142.59 279.3 125.32 286.42 117.14 303.88C114.89 308.67 114.5 310.85 114.5 318.66C114.5 323.7 114.76 328.09 115.09 328.42C115.41 328.74 118.28 328.11 121.47 327.01C136.9 321.7 160.32 320.01 172.73 323.3C191.5 328.27 202.06 339.75 202.82 356C203.28 365.82 200.68 373 194.02 380.29C177.84 397.99 149.18 398.57 127.17 381.63C119.97 376.09 115.99 371.62 110.18 362.53C107.71 358.66 105.53 355.32 105.35 355.09C104.72 354.32 101.02 358.29 98.0198 362.98C93.5198 369.97 93.0798 375.61 96.4798 382.56C100.01 389.76 106.54 394.65 124.37 403.45C139.64 410.99 142.45 413.4 142.45 418.93C142.45 423.72 141.57 424.77 130.43 433.11C101.94 454.43 91.0898 478.46 101.07 498.13C103.51 502.92 111.34 509.72 115.88 510.98C124.28 513.32 128.94 511.94 142.38 503.15C155.53 494.55 166.14 492.77 175.75 497.56C191.16 505.24 195.11 531.84 184.65 557.48C175.16 580.75 154.73 599.69 128.53 609.52L122.5 611.78L122.19 617.64C121.69 627.01 123.69 638.74 126.98 645.78C131.32 655.04 140.39 664.07 150.39 669.08C160.08 673.92 162.13 673.87 163.19 668.77C165.92 655.55 175.03 639.82 183.23 634.18C196.87 624.8 213.97 626.37 222.68 637.79C231.85 649.84 228.77 668.83 215.72 680.56L210.78 685L218.14 684.99C227.93 684.97 236.7 682.79 246.98 677.82C253.93 674.46 257.1 672.08 264.56 664.61C272.04 657.12 274.47 653.87 278.24 646.33C281.04 640.71 283.68 633.44 285.04 627.56C286.99 619.09 287.2 615.96 286.81 600.98C286.57 591.64 286.75 584 287.21 584C288.8 584 294.08 593.52 296.08 600C299.37 610.63 300.3 620.14 299.02 629.9C296.64 648.04 288.48 664.59 275.53 677.53C253.15 699.92 222.71 707.06 188.18 698.03C181.41 696.25 175.59 695.07 175.26 695.4C174.05 696.62 173.83 706.67 174.89 712.39C178.13 729.84 190.07 741.94 207.19 745.09C212.88 746.14 214.63 746.09 219.18 744.72C228.06 742.06 230.72 741.8 236.73 743.03C241.44 744 243.26 745.01 246.62 748.49C251.34 753.38 252.63 757.95 251 764C247.56 776.79 231.07 781.99 217.04 774.71C214.17 773.22 211.66 772 211.48 772C211.29 772 210.14 774.59 208.91 777.75C205.65 786.15 205.6 802.17 208.82 810.2C213.91 822.88 226.07 831.63 240.11 832.69C247.74 833.27 254.83 832.14 270 827.96C280.82 824.97 293.89 824.34 302 826.41C315.22 829.79 324.7 839.56 329.1 854.34C333.56 869.33 340.24 877.86 351.79 883.27C356.94 885.69 359.37 886.22 365.29 886.21C375.91 886.19 382.94 883.23 390.59 875.59C399.18 867 401.39 861.08 401.44 846.5L401.48 835.5L394.75 816C386.04 790.77 384.65 783.42 385.29 766C385.86 750.32 387.13 744.86 395.77 721C403.2 700.49 405 692.63 405 680.78C405 656.32 392.52 636 371.28 625.89C366.21 623.48 362.05 621.1 362.03 620.61C362.01 620.12 366.01 619.95 370.97 620.23C378.57 620.67 381.08 621.29 387.51 624.34C406.71 633.46 419.35 654.05 420.68 678.36C421.56 694.4 420.03 701.22 407.57 736.85C406.16 740.89 405 744.32 405 744.48C405 744.64 406.91 744.05 409.25 743.18C415.85 740.71 430.1 741.03 437.08 743.8C444.59 746.78 451.39 753.49 455.33 761.81C458.23 767.94 458.5 769.34 458.5 778.52C458.5 787.83 458.26 789.02 455.23 795.2C451.13 803.52 443.24 810.98 435.25 814.1C430.84 815.82 427.56 816.32 421.18 816.26C413.81 816.19 412.93 816.37 413.52 817.84C413.89 818.75 415.3 823.78 416.67 829C418.82 837.24 419.09 840.09 418.73 850.5C418.38 860.44 417.85 863.68 415.65 869.38C404.24 898.92 370.68 912.87 342.88 899.62C328.51 892.76 319.1 881.29 313.55 863.84C309.48 851.04 308.06 848.71 302.28 845.32C294.87 840.97 287.29 841.02 270.5 845.52C247.17 851.76 232.5 851.45 218.14 844.4C198.09 834.55 187.02 812.51 190.01 788.43C191.19 778.89 192.68 774.24 197.32 765.49L200.64 759.24L195.49 758.09C183.84 755.48 169.19 743.23 163.6 731.43C159.22 722.19 157.7 713.25 158.37 700.75C158.77 693.48 158.61 690 157.89 690C155.28 690 141.24 683.6 135.18 679.65C122.12 671.14 112.52 658.08 108.55 643.43C107.67 640.17 106.67 632.78 106.33 627L105.73 616.5H92.6098C80.0198 616.5 79.2398 616.38 72.9498 613.4C59.7798 607.16 53.5598 598.51 53.5998 586.5C53.6298 575.69 58.9298 567.63 68.9998 563.08C75.2398 560.26 86.9298 560.25 94.4598 563.07C104.68 566.9 114.37 578.26 118.06 590.75C118.75 593.09 119.84 595 120.47 595C122.92 595 140.82 585.28 146.67 580.77C164.44 567.06 175.16 545.65 173.66 526.83C173.15 520.42 170.96 514.32 168.61 512.77C166.77 511.54 161.08 511.91 158.12 513.44C156.59 514.23 152.04 517.15 148.01 519.93C132.18 530.83 118.46 532.38 103.83 524.91C98.8298 522.36 90.5298 514.77 87.5198 510C83.8598 504.2 80.9898 495.24 80.3498 487.58C78.4398 465.03 91.2598 441.8 115.39 424.06L121.28 419.73L115.76 417.48C97.6998 410.13 86.1598 401.14 80.7898 390.22C77.7598 384.07 77.4998 382.77 77.5098 374.02C77.5298 361.35 80.2198 355.54 90.9198 345L98.5398 337.5L97.3598 332.5C95.6698 325.28 95.7498 311.38 97.5298 304.46C102.37 285.62 116.46 271.84 137.56 265.33C142.67 263.76 146.16 263.55 162.5 263.89L162.81 263.9C199.28 264.65 204.26 264.75 208.44 262.96C209.11 262.67 209.76 262.34 210.52 261.95C216.09 259.08 221.39 252.81 222.98 247.22C223.56 245.18 224.48 237.83 225.02 230.9C226.7 209.37 231.54 195.22 242.08 180.98C259.34 157.68 291.75 143.01 326 143.01C373.91 143 405.7 172.2 409.21 219.44L409.5 223.38L419.4 226.22C446.52 234 468.1 251.05 479.96 274.05C486.59 286.92 489.27 297.56 489.27 311C489.26 327.77 485.36 340.85 476.39 354.26C473.42 358.69 471.1 362.41 471.24 362.51C471.39 362.62 474.15 364.38 477.39 366.43C484.35 370.83 491.83 378.27 496.76 385.69C498.71 388.63 500.45 390.88 500.63 390.7C500.81 390.52 502.73 387.63 504.9 384.28C510.19 376.09 514.96 370.96 521.43 366.51L526.82 362.79L522.15 357C509.58 341.39 503.66 320.7 506.08 300.81C510.44 264.91 535.75 236.06 572 225.66L580.5 223.23L581.21 215.54C583.25 193.45 594.89 170.29 610.26 157.74C636.45 136.35 673.52 135.24 694.63 155.21C705.24 165.25 709.89 175.42 713.53 196.6C714.91 204.62 716.76 212.61 717.64 214.34C722.36 223.69 730.68 227.25 739.35 223.63C741.15 222.87 745.75 218.74 749.56 214.43C763.25 198.99 769.56 194.22 781.3 190.48C787.51 188.51 791.2 188 799.34 188C817.7 188 831.39 193.39 843.49 205.38C859.54 221.27 865 239.48 865 277.14C865 305.9 871.92 323.44 882.5 321.54C884.15 321.24 891.35 318.08 898.5 314.52C914.35 306.62 922.14 304.61 934.38 305.28C942.21 305.71 944.17 306.22 950.85 309.63C956.56 312.54 959.38 314.74 962.24 318.5C972.68 332.22 970.71 350.76 957.54 362.79C944.52 374.68 926.08 377.8 906.14 371.47C890.24 366.43 875.44 354.61 865.02 338.65C861.74 333.62 858.2 328.38 857.17 327C850.9 318.69 847.11 305.37 846.29 288.75C845.91 281.2 845.31 277 844.6 277.01C841.84 277.03 831.91 283.91 825.97 289.91C802.09 314.03 807.53 344.62 838.56 360.7C842.93 362.96 855.9 367.83 867.39 371.52C900.65 382.2 916.95 391.66 927.46 406.39C940.16 424.19 942.06 443.67 932.87 462.02C928.33 471.08 921.56 477.89 912.55 482.44C904.89 486.3 893.95 487.01 880.95 484.49C860.78 480.57 849 486.04 849 499.33C849 504.06 849.3 504.66 853.95 509.14C860.19 515.15 867.24 517.48 876.93 516.74C886.34 516.02 893.11 513.07 908.5 503C925.58 491.82 930.71 489.75 942.67 489.22C951 488.85 952.39 489.06 957.96 491.56C969.93 496.93 977.4 508.42 978.63 523.34C980.24 542.79 970 561.97 951.63 573.91C946.21 577.43 934.89 581.78 926.68 583.49L923.85 584.08L926 587.29C929.62 592.72 932.05 598.74 933.65 606.28C938.61 629.63 925.45 652.78 903.13 659.96C896.88 661.97 894.59 662.21 886.37 661.72C877.73 661.2 876.91 661.31 877.54 662.83C881.11 671.48 884.42 681.78 885.59 687.84C887.44 697.48 887.38 711.11 885.45 718.54C880.18 738.86 866.72 753.06 846.49 759.65L838.23 762.34L836.04 767.62C831.32 779 820.51 791.44 809.5 798.17C797.13 805.73 787.55 808.01 764 808.97C748.14 809.62 743.32 810.17 738.17 811.92C721.99 817.43 715.5 826.04 712.5 846.01C709.57 865.54 706.41 874.28 698.52 884.74C691.11 894.56 679.39 901.96 667.13 904.56ZM509.3 690.37C507.54 691.27 505.46 692 504.68 692C499.46 692 430.73 639.96 390.5 605.56C353.86 574.22 331.25 547.97 320.08 523.79C301.19 482.91 306.53 442.5 334.52 414.52C352.61 396.43 374.28 388.13 400.43 389.27C438.12 390.92 471.8 411.83 497.48 449.5C500.11 453.35 502.6 456.5 503.02 456.5C503.44 456.5 506.06 453.08 508.85 448.91C528.43 419.64 556.55 398.91 587.5 390.92C595.09 388.96 598.92 388.6 612 388.65C630.64 388.71 638.33 390.43 653.58 397.94C665.03 403.59 675.18 412.19 682.53 422.49C705.44 454.6 702.53 498.71 674.74 540.5C651.47 575.5 604.17 621.46 547.5 664.13C535.5 673.17 513.75 688.1 509.3 690.37ZM487.38 659.31C496.66 666.29 504.59 672 505.01 672C506.24 672 529.49 655.44 542 645.66C590.67 607.59 639.23 559.19 658.55 529.5C682.29 493.02 684.41 457.91 664.45 431.94C656.81 422 642.92 413.35 629 409.88C620.46 407.74 599.35 408.27 589.65 410.87C580.16 413.41 565.57 420.18 556.88 426.08C542.32 435.95 523.57 456.82 512.35 475.63C509.3 480.74 506.19 485.43 505.45 486.04C502.81 488.24 500.58 486.39 495.23 477.56C483.69 458.5 470.35 442.47 457.36 432.01C428.14 408.51 394.44 402.58 366.5 416.03C349.64 424.15 338.16 437.55 331.84 456.5C329.8 462.61 329.51 465.35 329.57 478C329.64 490.75 329.97 493.56 332.33 501.28C344.98 542.69 380.57 578.96 487.38 659.31ZM772.39 642.55C782.36 644.79 794.58 642.77 806.07 636.97C811.68 634.13 824.72 624.32 828.41 620.15C830.31 618 830.3 617.95 826.41 612.3C819.81 602.71 807.82 589.85 801.34 585.42C791.78 578.88 785.02 576.6 775 576.55C767.87 576.51 765.61 576.92 760.95 579.1C753.62 582.54 749.03 586.71 745.45 593.18C742.76 598.03 742.5 599.35 742.5 608C742.51 616.34 742.83 618.12 745.16 622.52C748.25 628.39 755.92 635.9 762 639C764.35 640.2 769.03 641.8 772.39 642.55ZM881.73 644.97C895.44 648.41 909.73 641.39 915.75 628.24C917.95 623.44 918.18 621.8 917.8 614.15C917.29 604.2 915.34 599.5 908.68 592.25C900.5 583.34 890.25 581.53 879.2 587.06C872.32 590.5 867.03 595.91 857.4 609.37L851.06 618.23L856.28 625.74C863.63 636.3 871.8 642.47 881.73 644.97ZM583.04 799.48C587.54 801.51 600.18 801.03 604.74 798.65C614.04 793.8 618.71 785.64 619.72 772.45L620.26 765.4L615.57 761.27C609.65 756.06 603.62 754 594.29 754C585.8 754 580.99 755.67 576.16 760.3C570.75 765.49 568.57 770.57 568.57 778C568.57 788.23 573.14 795.01 583.04 799.48ZM149.89 374.65C163.09 380.07 179.25 375.3 184.88 364.32C185.5 363.11 186 359.92 186 357.22C186 343.66 169.42 335.87 146.74 338.78C137.46 339.97 120.99 344.46 121.01 345.79C121.03 347.69 127.43 357.3 131.99 362.3C137.7 368.54 141.6 371.24 149.89 374.65ZM912.88 356.15C921.64 359.04 933.85 358.3 940.93 354.45C954.82 346.89 955.95 330.78 943.03 324.25C939.57 322.5 936.87 322 930.94 322C922.11 322 916.63 323.65 903.5 330.25C898.55 332.74 892.58 335.34 890.25 336.04C887.91 336.74 886 337.65 886 338.07C886 339.5 896.18 347.96 901.71 351.12C904.76 352.87 909.79 355.13 912.88 356.15ZM415.67 800.56C423.25 802.6 430.29 800.75 436.34 795.14C446.58 785.64 445.55 767.55 434.31 759.65C425.76 753.64 411.84 755.41 403.98 763.52L400.7 766.91L401.34 775.3C402.2 786.45 404.78 794.75 408.18 797.28C409.64 798.37 413.01 799.85 415.67 800.56ZM352.96 278.75C355.42 279.99 358.37 281 359.53 281C364.28 281 371.25 277.62 375.95 273.05C383.09 266.09 386.62 258.45 390.43 241.69L391.07 238.87L383.79 239.53C373.98 240.42 365.51 242.62 359.65 245.8C353.16 249.31 346.61 256.77 345.02 262.42C343.86 266.57 343.95 267.32 346.13 271.72C347.92 275.33 349.59 277.05 352.96 278.75ZM621.5 278.64C627.64 281.52 631.88 281.61 637.02 278.99C646.68 274.06 646.36 261.45 636.33 251.82C629.54 245.29 618.12 240.91 604.65 239.67L598.8 239.12L599.45 242.81C600.36 247.98 603.91 258.77 606.21 263.35C609.18 269.27 615.97 276.05 621.5 278.64ZM178.72 677.38C180.42 679.08 196.37 675.05 201.99 671.5C209.65 666.67 213.91 658.08 212.05 651.19C210.68 646.08 207.83 644 202.23 644C196.64 644 193.18 645.85 188.19 651.52C182.62 657.85 176.34 675 178.72 677.38ZM814 745.4C821.42 747.38 825.64 747.39 826.39 745.42C827.75 741.89 826.95 729.48 825.1 725.5C821.94 718.67 817.9 715.68 811.25 715.27C804.45 714.85 801.49 716.15 798.19 721.01C796.4 723.65 795.95 725.41 796.32 728.22C797.39 736.4 803.85 742.68 814 745.4ZM82.0098 599.04C87.4798 600.93 94.7998 601.35 100.5 600.11C102.99 599.57 103.44 599.04 103.15 596.99C102.27 590.84 95.4698 581.38 89.7998 578.41C88.3098 577.64 84.7998 577 81.9798 577C73.7598 577 70.0898 579.84 70.0298 586.26C69.9898 591.47 74.7298 596.53 82.0098 599.04ZM220.73 768.61C228.84 770.85 237.53 768.11 239.43 762.73C241.49 756.86 232.56 753.74 224.56 757.54C220.78 759.33 214.33 765.67 215.3 766.64C215.67 767 218.11 767.89 220.73 768.61Z" fill="white"/>
</g>
<defs>
<clipPath id="clip0_215_215">
<rect width="1024" height="1024" fill="white"/>
</clipPath>
</defs>
</svg>
  <text x="432" y="230" fill="#ED4672" font-size="26" font-family="Arial, Helvetica, sans-serif" font-weight="700" letter-spacing="0.28em">AYELET NETANEL</text>
  <text x="432" y="304" fill="#181218" font-size="58" font-family="Arial, Helvetica, sans-serif" font-weight="800">סטודיו לשיער</text>
  <text x="432" y="362" fill="#181218" font-size="58" font-family="Arial, Helvetica, sans-serif" font-weight="800">ותורים אונליין</text>
  <text x="432" y="414" fill="#4B4146" font-size="24" font-family="Arial, Helvetica, sans-serif" font-weight="600">Curly styling, color, treatments, guided booking</text>
  <rect x="432" y="446" width="182" height="44" rx="22" fill="#111015"/>
  <text x="467" y="475" fill="#FFF8F4" font-size="20" font-family="Arial, Helvetica, sans-serif" font-weight="700">Ayelet Studio</text>
  <rect x="628" y="446" width="188" height="44" rx="22" fill="#ED4672" fill-opacity="0.16"/>
  <text x="658" y="475" fill="#B11756" font-size="20" font-family="Arial, Helvetica, sans-serif" font-weight="700">WhatsApp Friendly</text>
</svg>
